<svg width="49" height="49" viewBox="0 0 49 49" fill="none" xmlns="http://www.w3.org/2000/svg">
<path d="M22.9688 3.0625H26.0312V10.7188H22.9688V3.0625Z" fill="black"/>
<path d="M33.2082 13.6281L38.5768 8.25803L40.7419 10.4247L35.3734 15.7933L33.2082 13.6281Z" fill="black"/>
<path d="M38.2812 22.9688H45.9375V26.0312H38.2812V22.9688Z" fill="black"/>
<path d="M33.2082 35.3719L35.3734 33.2067L40.7419 38.5753L38.5768 40.742L33.2082 35.3719Z" fill="black"/>
<path d="M22.9688 38.2812H26.0312V45.9375H22.9688V38.2812Z" fill="black"/>
<path d="M8.25958 38.5753L13.6281 33.2067L15.7933 35.3734L10.4248 40.742L8.25958 38.5753Z" fill="black"/>
<path d="M3.0625 22.9688H10.7188V26.0312H3.0625V22.9688Z" fill="black"/>
<path d="M8.25958 10.4247L10.4248 8.25803L15.7933 13.6281L13.6281 15.7933L8.25958 10.4247Z" fill="black"/>
<path d="M24.5 18.375C25.7114 18.375 26.8956 18.7342 27.9029 19.4072C28.9101 20.0803 29.6952 21.0369 30.1588 22.1561C30.6224 23.2753 30.7436 24.5068 30.5073 25.6949C30.271 26.8831 29.6876 27.9744 28.831 28.831C27.9744 29.6876 26.8831 30.271 25.6949 30.5073C24.5068 30.7436 23.2753 30.6224 22.1561 30.1588C21.0369 29.6952 20.0803 28.9101 19.4073 27.9029C18.7342 26.8956 18.375 25.7114 18.375 24.5C18.377 22.8762 19.023 21.3194 20.1712 20.1712C21.3194 19.023 22.8762 18.377 24.5 18.375ZM24.5 15.3125C22.6829 15.3125 20.9066 15.8513 19.3957 16.8609C17.8848 17.8704 16.7072 19.3053 16.0119 20.9841C15.3165 22.6629 15.1345 24.5102 15.489 26.2924C15.8435 28.0746 16.7186 29.7117 18.0035 30.9965C19.2884 32.2814 20.9254 33.1565 22.7076 33.511C24.4898 33.8655 26.3371 33.6835 28.0159 32.9881C29.6947 32.2928 31.1296 31.1152 32.1391 29.6043C33.1487 28.0934 33.6875 26.3171 33.6875 24.5C33.6875 22.0633 32.7195 19.7264 30.9965 18.0035C29.2736 16.2805 26.9367 15.3125 24.5 15.3125Z" fill="black"/>
</svg>
